<mxfile host="app.diagrams.net" modified="2021-03-11T05:39:55.643Z" agent="5.0 (Macintosh; Intel Mac OS X 10_15_6) AppleWebKit/537.36 (KHTML, like Gecko) Chrome/87.0.4280.88 Safari/537.36" etag="o49Ny_t3CTwokhv5nm-y" version="14.4.7" type="github">
  <diagram id="pFBY5_kpnwXTN5B2f9tC" name="Page-1">
    <mxGraphModel dx="946" dy="589" grid="1" gridSize="10" guides="1" tooltips="1" connect="1" arrows="1" fold="1" page="1" pageScale="1" pageWidth="850" pageHeight="1100" math="0" shadow="0">
      <root>
        <mxCell id="0" />
        <mxCell id="1" parent="0" />
        <mxCell id="zuAVe0Jq6Ppcv41D3II_-1" value="" style="ellipse;whiteSpace=wrap;html=1;aspect=fixed;fillColor=#0066CC;strokeColor=#FFFFFF;shadow=1;" vertex="1" parent="1">
          <mxGeometry x="70" y="40" width="120" height="120" as="geometry" />
        </mxCell>
        <mxCell id="zuAVe0Jq6Ppcv41D3II_-2" value="" style="ellipse;whiteSpace=wrap;html=1;aspect=fixed;shadow=1;strokeColor=#FFFFFF;fillColor=#FFFFFF;" vertex="1" parent="1">
          <mxGeometry x="100" y="88" width="10" height="10" as="geometry" />
        </mxCell>
        <mxCell id="zuAVe0Jq6Ppcv41D3II_-3" value="" style="ellipse;whiteSpace=wrap;html=1;aspect=fixed;shadow=1;strokeColor=#FFFFFF;fillColor=#FFFFFF;" vertex="1" parent="1">
          <mxGeometry x="150" y="88" width="10" height="10" as="geometry" />
        </mxCell>
        <mxCell id="zuAVe0Jq6Ppcv41D3II_-7" value="" style="verticalLabelPosition=bottom;verticalAlign=top;html=1;shape=mxgraph.basic.moon;shadow=1;strokeColor=#FFFFFF;fillColor=#FFFFFF;rotation=115;" vertex="1" parent="1">
          <mxGeometry x="119.82" y="112.9" width="22.66" height="32.76" as="geometry" />
        </mxCell>
        <mxCell id="zuAVe0Jq6Ppcv41D3II_-8" value="" style="verticalLabelPosition=bottom;verticalAlign=top;html=1;shape=mxgraph.basic.drop;shadow=1;strokeColor=#FFFFFF;fillColor=#66FFFF;" vertex="1" parent="1">
          <mxGeometry x="156" y="107" width="10" height="20" as="geometry" />
        </mxCell>
      </root>
    </mxGraphModel>
  </diagram>
</mxfile>
